<?xml version="1.0" encoding="utf-8"?>
<!-- Generator: Adobe Illustrator 27.5.0, SVG Export Plug-In . SVG Version: 6.00 Build 0)  -->
<svg version="1.1" xmlns="http://www.w3.org/2000/svg" xmlns:xlink="http://www.w3.org/1999/xlink" x="0px" y="0px"
	 viewBox="0 0 2200 2200" style="enable-background:new 0 0 2200 2200;" xml:space="preserve">
<g id="background">
	<rect style="fill:#FFFFFF;" width="2200" height="2200"/>
</g>
<g id="Objects">
	<g>
		<path d="M313.554,1398.422h-66.561c-11.815,0-21.393,9.578-21.393,21.393v303.123c0,11.815,9.578,21.393,21.393,21.393h66.561
			c11.815,0,21.393-9.578,21.393-21.393v-303.123C334.947,1408,325.369,1398.422,313.554,1398.422z"/>
		<path d="M472.006,1398.422h-66.561c-11.815,0-21.393,9.578-21.393,21.393v303.123c0,11.815,9.578,21.393,21.393,21.393h66.561
			c11.815,0,21.393-9.578,21.393-21.393v-303.123C493.399,1408,483.821,1398.422,472.006,1398.422z"/>
		<path d="M630.457,1398.422h-66.561c-11.815,0-21.393,9.578-21.393,21.393v303.123c0,11.815,9.578,21.393,21.393,21.393h66.561
			c11.815,0,21.393-9.578,21.393-21.393v-303.123C651.85,1408,642.272,1398.422,630.457,1398.422z"/>
		<path d="M788.908,1398.422h-66.561c-11.815,0-21.393,9.578-21.393,21.393v303.123c0,11.815,9.578,21.393,21.393,21.393h66.561
			c11.815,0,21.393-9.578,21.393-21.393v-303.123C810.301,1408,800.723,1398.422,788.908,1398.422z"/>
		<path d="M1968.272,1556.583l-342.35-342.35c-13.179-13.179-35.714-3.845-35.714,14.793v169.396h-709.41
			c-11.815,0-21.393,9.578-21.393,21.393v303.123c0,11.815,9.578,21.393,21.393,21.393h709.41v169.396
			c0,18.638,22.535,27.973,35.714,14.793l342.35-342.35C1976.442,1578,1976.442,1564.754,1968.272,1556.583z"/>
	</g>
	<g>
		<path style="fill:#70DEFC;" d="M313.554,455.669h-66.561c-11.815,0-21.393,9.578-21.393,21.393v303.123
			c0,11.815,9.578,21.393,21.393,21.393h66.561c11.815,0,21.393-9.578,21.393-21.393V477.062
			C334.947,465.247,325.369,455.669,313.554,455.669z"/>
		<path style="fill:#38BBF4;" d="M472.006,455.669h-66.561c-11.815,0-21.393,9.578-21.393,21.393v303.123
			c0,11.815,9.578,21.393,21.393,21.393h66.561c11.815,0,21.393-9.578,21.393-21.393V477.062
			C493.399,465.247,483.821,455.669,472.006,455.669z"/>
		<path style="fill:#33A5F2;" d="M630.457,455.669h-66.561c-11.815,0-21.393,9.578-21.393,21.393v303.123
			c0,11.815,9.578,21.393,21.393,21.393h66.561c11.815,0,21.393-9.578,21.393-21.393V477.062
			C651.85,465.247,642.272,455.669,630.457,455.669z"/>
		<path style="fill:#2A86EA;" d="M788.908,455.669h-66.561c-11.815,0-21.393,9.578-21.393,21.393v303.123
			c0,11.815,9.578,21.393,21.393,21.393h66.561c11.815,0,21.393-9.578,21.393-21.393V477.062
			C810.301,465.247,800.723,455.669,788.908,455.669z"/>
		<path style="fill:#2164DB;" d="M1968.272,613.83l-342.35-342.35c-13.179-13.179-35.714-3.845-35.714,14.793v169.396h-709.41
			c-11.815,0-21.393,9.578-21.393,21.393v303.123c0,11.815,9.578,21.393,21.393,21.393h709.41v169.396
			c0,18.638,22.535,27.972,35.714,14.793l342.35-342.35C1976.442,635.246,1976.442,622,1968.272,613.83z"/>
	</g>
</g>
</svg>
